<?xml version="1.0" encoding="utf-8"?>
<!-- Generator: Adobe Illustrator 19.2.0, SVG Export Plug-In . SVG Version: 6.00 Build 0)  -->
<svg version="1.1" id="Layer_1" xmlns="http://www.w3.org/2000/svg" xmlns:xlink="http://www.w3.org/1999/xlink" x="0px" y="0px"
	 viewBox="0 0 100 100" style="enable-background:new 0 0 100 100;" xml:space="preserve">
<style type="text/css">
	.st0{fill:none;stroke:#CF2457;stroke-width:3;stroke-linecap:round;stroke-miterlimit:10;stroke-dasharray:9.7329,9.7329;}
	.st1{fill:#CF2457;}
	.st2{fill:#FFFFFF;}
</style>
<g>
	<circle class="st0" cx="50" cy="50" r="46.5"> 
	 <animateTransform attributeType="xml"
      attributeName="transform"
      type="rotate"
      from="0 50 50"
      to="360 50 50"
      dur="5s"
      repeatCount="indefinite"/>
  </circle>
</g>
<g>
	<circle class="st1" cx="50" cy="50" r="36.2"/>
	<g>
		<path class="st2" d="M67.5,49c0-1.3-0.5-2.4-1.3-3.3c0.2-0.3,0.4-0.6,0.5-0.9c0.7-1.3,0.7-3,0-4.4c1.1-3.9-0.1-8.5-3.3-12.7
			c-1.6-2.1-3.5-3.8-5.6-5c-1.3-0.7-2.5-1.2-3.5-1.3c-0.2,0-0.3,0-0.5,0c-0.5,0-1.1,0.1-1.7,0.3c-0.7-0.2-1.4-0.3-2.1-0.3
			c-1.1,0-2.1,0.2-3.2,0.7c-2.1,1-4.1,2.5-5.8,4.7c-2.7,3.3-5,8.6-3.6,13.6c-0.6,1.1-0.6,2.6-0.1,3.8l0,0.1c0.1,0.2,0.3,0.6,0.5,1.1
			c-0.8,0.9-1.2,2-1.2,3.2c0,0,0,0,0,0c-0.1,0.2-0.1,0.5-0.1,0.7c0,0.4,0.1,0.7,0.2,1c0,0,0,0,0,0.1c0.1,0.4,0.2,0.7,0.5,1
			c0,0,0,0,0,0c0.2,0.3,0.4,0.6,0.7,0.8c0,0,0,0,0,0.1c0.2,0.3,0.5,0.5,0.8,0.7c0,0,0,0,0,0c0.3,0.2,0.6,0.4,1,0.5c0,0,0,0,0.1,0
			c0.3,0.2,0.7,0.2,1,0.2c0,0,0,0,0.1,0c0.2,0,0.4,0.1,0.6,0.1c0.2,0,0.4,0,0.5-0.1c0,0,0,0,0.1,0c0.4,0,0.7-0.1,1-0.2
			c0,0,0,0,0.1,0c0.2,0,0.3-0.1,0.5-0.2c0.2,0.3,0.4,0.5,0.6,0.7V58l-7.1,2.6c-4.5,1.7-7.1,5.5-6.8,10.1c0,0.4,0.1,0.7,0.2,1
			c-0.1,0.4-0.2,0.7-0.2,1.1c0,1.7,1.3,3,3,3c0.9,0,1.7-0.4,2.3-1c0,0,0,0,0,0c0.4,0.2,0.9,0.3,1.4,0.3c3,0,6.2-0.5,10-1.5
			c1-0.3,2-0.6,2.9-0.9c0,0.4,0,0.7,0.1,1.1c0.4,1.3,1.6,2.2,2.9,2.2c0.5,0,1.1-0.1,1.5-0.4c4.1-2.5,7.4-5.5,9.6-9
			c1.2-1.9,1.9-3.6,2.3-5.1c0.2-0.9,0-1.8-0.6-2.5c-0.3-0.4-0.7-0.7-1.2-0.9c1.5-1.5,2.4-3.6,2.6-5.7c0-0.5,0-1.1,0-1.6
			C67.3,50.2,67.5,49.7,67.5,49z"/>
		<g>
			<path class="st1" d="M44.6,62.5c-1.1,0-1.1,1.7,0,1.7C45.7,64.2,45.7,62.5,44.6,62.5z"/>
			<path class="st1" d="M33.3,72c-1.1,0-1.1,1.7,0,1.7C34.4,73.7,34.4,72,33.3,72z"/>
			<path class="st1" d="M60.4,43c-0.8-0.2-1.5,0.5-2.2,0.7c-0.9,0.3-2.1,0.1-2.9-0.5c-0.2-0.1-0.3,0.1-0.1,0.2
				c0.5,0.3,1.1,0.6,1.6,0.6c0.6,0.1,1.2,0,1.8-0.2c0.6-0.2,1-0.8,1.7-0.6C60.5,43.3,60.6,43,60.4,43z"/>
			<path class="st1" d="M55.8,50c-0.2,0.1-0.4,0.2-0.6,0.3c-0.6-0.4-2-1.2-3.1-0.8c0,0-0.7-0.5-2.8,1c-0.5-0.1-0.6-0.2-1.1-0.3
				c-0.2-0.1-0.3,0.1-0.2,0.2c0.5,0.2,0.8,0.3,1.4,0.4c0,0,0.5,1.7,3.1,1.3c0,0,2.1,0.3,2.5-1.4c0.1,0,0.2-0.1,0.3-0.1l0.2,0
				c0,0,0,0,0,0c0.2-0.1,0.3-0.1,0.5-0.2C56.2,50.1,56,49.9,55.8,50z M50.1,50.5c0.7-0.2,2.1-0.5,4.2,0C53,50.8,51.5,50.8,50.1,50.5
				z"/>
			<path class="st1" d="M59.2,56.7c-1.1,0-1.1,1.7,0,1.7C60.3,58.4,60.3,56.7,59.2,56.7z"/>
			<path class="st1" d="M51.9,41.5c0,1.9,0,3.8,0,5.7c0,0.2,0.3,0.2,0.3,0c0-1.9,0-3.8,0-5.7C52.2,41.3,51.9,41.3,51.9,41.5z"/>
			<path class="st1" d="M48.9,43c-0.8,0.6-2,0.8-2.9,0.5c-0.7-0.2-1.4-0.9-2.2-0.7c-0.2,0-0.1,0.3,0.1,0.3c0.7-0.2,1.1,0.4,1.7,0.6
				c0.6,0.2,1.1,0.3,1.8,0.2c0.6-0.1,1.2-0.3,1.6-0.6C49.1,43.2,49,42.9,48.9,43z"/>
			<ellipse class="st1" cx="52" cy="39.2" rx="0.7" ry="0.7"/>
			<path class="st1" d="M61.1,42c-0.2,0.1-0.4,0.1-0.6,0.1c0.4-0.2,0.7-0.4,0.9-0.7c0.1-0.1-0.2-0.3-0.2-0.1c-0.2,0.4-0.6,0.6-1,0.8
				c-0.1,0-0.2-0.1-0.2-0.1c0.2-0.1,0.5-0.3,0.6-0.5c0.1-0.1-0.1-0.3-0.2-0.1c-0.1,0.2-0.4,0.4-0.6,0.5c-0.4-0.2-0.8-0.5-1.1-0.6
				c-0.8-0.3-1.6-0.2-2.3,0c-0.9,0.3-1.6,1.1-2.1,1.8c-0.2,0.3,0.3,0.6,0.5,0.3c0.3-0.5,0.7-1,1.2-1.3c0,0,0,0.1,0,0.1
				c0,0.7,0.6,1.2,1.3,1.3c0.7,0,1.4-0.5,1.4-1.2c0-0.1,0-0.3-0.1-0.4c1,0.4,1.9,1.2,3,0.7C61.8,42.3,61.5,41.8,61.1,42z M58.1,42.8
				c-0.1,0.1-0.2-0.2-0.4-0.4c-0.2-0.3-0.4-0.4-0.2-0.5c0.1-0.1,0.4,0,0.6,0.3C58.2,42.5,58.2,42.7,58.1,42.8z"/>
			<path class="st1" d="M54.2,40.4c0.9-0.5,1.8-1,2.7-1.5c1.4-0.7,2.6-0.3,3.5,1c0.3,0.5,1.2,0,0.9-0.5c-0.9-1.3-2.1-2-3.7-1.8
				c-1.4,0.2-2.7,1.2-3.9,1.9C53.1,39.8,53.6,40.7,54.2,40.4z"/>
			<ellipse class="st1" cx="39.4" cy="48.8" rx="0.2" ry="0.2"/>
			<ellipse transform="matrix(0.9753 -0.221 0.221 0.9753 -9.8921 9.9684)" class="st1" cx="39.6" cy="49.2" rx="0.2" ry="0.2"/>
			
				<ellipse transform="matrix(0.9029 -0.4298 0.4298 0.9029 -17.4354 21.9296)" class="st1" cx="39.8" cy="49.6" rx="0.2" ry="0.2"/>
			
				<ellipse transform="matrix(0.7817 -0.6237 0.6237 0.7817 -22.3459 35.9274)" class="st1" cx="40.1" cy="49.9" rx="0.2" ry="0.2"/>
			
				<ellipse transform="matrix(0.6219 -0.7831 0.7831 0.6219 -23.9305 50.6762)" class="st1" cx="40.5" cy="50.1" rx="0.2" ry="0.2"/>
			
				<ellipse transform="matrix(0.4344 -0.9007 0.9007 0.4344 -22.1276 65.3131)" class="st1" cx="40.9" cy="50.3" rx="0.2" ry="0.2"/>
			
				<ellipse transform="matrix(0.2305 -0.9731 0.9731 0.2305 -17.1317 79.0001)" class="st1" cx="41.4" cy="50.3" rx="0.2" ry="0.2"/>
			
				<ellipse transform="matrix(8.801527e-03 -1 1 8.801527e-03 -8.8243 91.6785)" class="st1" cx="41.8" cy="50.3" rx="0.2" ry="0.2"/>
			<ellipse transform="matrix(0.9759 -0.2182 0.2182 0.9759 -9.9243 10.4286)" class="st1" cx="42.3" cy="50.2" rx="0.2" ry="0.2"/>
			
				<ellipse transform="matrix(0.9041 -0.4274 0.4274 0.9041 -17.2449 23.0138)" class="st1" cx="42.6" cy="49.9" rx="0.2" ry="0.2"/>
			<ellipse transform="matrix(0.7855 -0.6189 0.6189 0.7855 -21.4884 37.236)" class="st1" cx="43" cy="49.6" rx="0.2" ry="0.2"/>
			
				<ellipse transform="matrix(0.6287 -0.7776 0.7776 0.6287 -22.2488 51.8912)" class="st1" cx="43.2" cy="49.2" rx="0.2" ry="0.2"/>
			<path class="st1" d="M65.4,49.9c0.1,0,0.2-0.1,0.2-0.2c0-0.1-0.1-0.2-0.2-0.2c0-0.2,0.1-0.4,0.1-0.5c0-1.1-0.7-2.1-1.7-2.5
				c-0.2-0.1-0.4-0.1-0.6-0.2c0.5-0.8,1.1-1.6,1.5-2.4c0.5-1,0.3-2.4-0.5-3c1.7-4-0.1-8.5-2.6-11.8c-1.4-1.8-3-3.3-5-4.4
				c-0.8-0.4-1.8-0.9-2.7-1c-0.7-0.1-1.3,0.1-2,0.4c-1.6-0.6-2.8-0.6-4.4,0.1c-2,0.9-3.7,2.4-5.1,4.1c-2.8,3.4-4.5,8.1-3,12.4
				c0,0.1,0.1,0.2,0.1,0.3c-0.8,0.5-0.9,1.9-0.5,2.7c0.2,0.4,0.7,1.6,1.3,2.6c-1.1,0.4-1.8,1.4-1.8,2.5c0,0.2,0,0.4,0.1,0.5
				c-0.1,0-0.2,0.1-0.2,0.2c0,0.1,0.1,0.2,0.2,0.2c0,0,0,0,0.1,0c0,0,0,0.1,0.1,0.1c-0.1,0-0.2,0.1-0.2,0.3c0,0.1,0.1,0.2,0.3,0.2
				c0,0,0.1,0,0.1-0.1c0,0,0.1,0.1,0.1,0.1c0,0,0,0,0,0c-0.1,0.1-0.2,0.2-0.1,0.3c0.1,0.1,0.2,0.2,0.3,0.1c0,0,0.1-0.1,0.1-0.1
				c0,0,0.1,0.1,0.1,0.1c0,0,0,0-0.1,0c-0.1,0.1-0.1,0.2,0,0.3c0.1,0.1,0.2,0.1,0.3,0c0,0,0.1-0.1,0.1-0.1c0.1,0,0.1,0.1,0.2,0.1
				c0,0,0,0-0.1,0.1c-0.1,0.1-0.1,0.2,0,0.3c0.1,0.1,0.2,0.1,0.3,0c0-0.1,0.1-0.1,0-0.2c0.1,0,0.1,0.1,0.2,0.1c0,0-0.1,0-0.1,0.1
				c-0.1,0.1,0,0.2,0.1,0.3c0.1,0.1,0.2,0,0.3-0.1c0-0.1,0-0.1,0-0.2c0.1,0,0.2,0,0.2,0c0,0,0,0.1-0.1,0.1c0,0.1,0,0.2,0.2,0.3
				c0.1,0,0.2,0,0.3-0.2c0-0.1,0-0.1-0.1-0.2c0.1,0,0.2,0,0.2,0c0,0,0,0.1,0,0.1c0,0.1,0.1,0.2,0.2,0.2c0.1,0,0.2-0.1,0.2-0.2
				c0-0.1,0-0.1-0.1-0.2c0.1,0,0.1,0,0.2-0.1c0,0,0,0.1,0,0.1c0,0.1,0.1,0.2,0.3,0.2c0.1,0,0.2-0.1,0.2-0.3c0-0.1-0.1-0.1-0.1-0.1
				c0.1,0,0.1-0.1,0.2-0.1c0,0,0,0.1,0,0.1c0.1,0.1,0.2,0.2,0.3,0.1c0.1-0.1,0.2-0.2,0.1-0.3c0-0.1-0.1-0.1-0.1-0.1
				c0,0,0.1-0.1,0.1-0.1c0,0,0,0,0,0c0.1,0.1,0.2,0.1,0.3,0c0.1-0.1,0.1-0.2,0-0.3c0,0-0.1-0.1-0.1-0.1c0,0,0.1-0.1,0.1-0.1
				c0,0,0,0,0,0c0.1,0.1,0.2,0.1,0.3,0c0.6,1.1,1.4,2.2,2.3,3.2c0,0.1,0,0.1,0,0.2c0,1.9,0,3.9,0,5.8c-2.8,1-5.6,2.1-8.4,3.1
				c-3.5,1.3-5.7,4.1-5.4,8c0.1,1.1,1.8,1.1,1.7,0c-0.1-2.3,0.6-4.3,2.6-5.6c0.7-0.4,1.3-0.6,2-0.9c2.9-1.1,5.8-2.1,8.6-3.2
				c0.4-0.1,0.6-0.4,0.6-0.8c0-1.7,0-3.4,0-5.1c1.2,0.8,2.5,1.4,3.9,1.4c1.4,0.1,2.9-0.7,4.1-1.6c0,1.7,0,3.5,0,5.2
				c0,0.4,0.3,0.7,0.6,0.8c1.1,0.4,2.1,0.8,3.2,1.2c0,0,0,0,0,0c-0.8,0.8-1.7,1.4-2.6,2c-3.2,1.8-6.8,1.5-10-0.2
				c-1-0.5-1.9,1-0.9,1.5c2.3,1.2,4.6,1.8,7,1.6c-2.4,1.3-4.9,2.3-7.6,3C43,70.7,40,71.3,37,71.3c-1.1,0-1.1,1.7,0,1.7
				c3.2,0,6.4-0.6,9.4-1.5c6-1.6,11.6-4.7,15.6-9.4c-0.3,0.8-0.7,1.5-1.2,2.2c-2,3.3-5.1,5.9-8.4,7.9c-1,0.6-0.1,2.1,0.9,1.5
				c3.5-2.1,6.7-4.8,8.9-8.3c0.8-1.3,1.7-2.9,2-4.4c0.2-1-1.3-1.5-1.6-0.5c-0.3-0.4-0.9-0.6-1.3-0.1c-0.1,0.1-0.2,0.2-0.3,0.3
				c-1.1-0.4-2.2-0.8-3.3-1.2c0-1.9,0-3.7,0-5.6c0-0.2,0-0.3-0.1-0.4c0.7-0.6,1.3-1.4,1.8-2.1c0.2-0.3,0.5-0.5,0.7-0.8
				c0.1,0.1,0.2,0.1,0.3,0c0,0,0,0,0,0c0,0,0.1,0.1,0.1,0.1c0,0-0.1,0-0.1,0.1c-0.1,0.1-0.1,0.2,0,0.3c0.1,0.1,0.2,0.1,0.3,0
				c0,0,0,0,0,0c0,0,0.1,0.1,0.1,0.1c0,0-0.1,0.1-0.1,0.1c-0.1,0.1,0,0.2,0.1,0.3c0.1,0.1,0.2,0,0.3-0.1c0,0,0-0.1,0-0.1
				c0.1,0,0.1,0.1,0.2,0.1c-0.1,0-0.1,0.1-0.1,0.1c0,0.1,0.1,0.2,0.2,0.3c0.1,0,0.2-0.1,0.3-0.2c0,0,0-0.1,0-0.1
				c0.1,0,0.1,0,0.2,0.1c-0.1,0-0.1,0.1-0.1,0.2c0,0.1,0.1,0.2,0.2,0.2c0.1,0,0.2-0.1,0.2-0.2c0,0,0-0.1,0-0.1c0.1,0,0.2,0,0.2,0
				c0,0.1-0.1,0.1-0.1,0.2c0,0.1,0.2,0.2,0.3,0.2c0.1,0,0.2-0.1,0.2-0.3c0,0,0-0.1-0.1-0.1c0.1,0,0.2,0,0.2,0c0,0.1,0,0.1,0,0.2
				c0.1,0.1,0.2,0.2,0.3,0.1c0.1-0.1,0.2-0.2,0.1-0.3c0,0,0-0.1-0.1-0.1c0.1,0,0.1,0,0.2-0.1c0,0.1,0,0.1,0,0.2
				c0.1,0.1,0.2,0.1,0.3,0c0.1-0.1,0.1-0.2,0-0.3c0,0,0,0-0.1-0.1c0.1,0,0.1-0.1,0.2-0.1c0,0.1,0,0.1,0.1,0.1c0.1,0.1,0.2,0.1,0.3,0
				c0.1-0.1,0.1-0.2,0-0.3c0,0,0,0-0.1,0c0,0,0.1-0.1,0.1-0.1c0,0,0.1,0.1,0.1,0.1c0.1,0.1,0.2,0,0.3-0.1c0.1-0.1,0-0.2-0.1-0.3
				c0,0,0,0,0,0c0,0,0.1-0.1,0.1-0.1c0,0,0.1,0,0.1,0.1c0.1,0,0.2,0,0.3-0.2c0-0.1,0-0.2-0.2-0.3C65.3,50,65.3,50,65.4,49.9
				C65.3,49.9,65.4,49.9,65.4,49.9z M63.5,46.8c0.5,0.2,0.7,0.7,0.7,1.2c0,0.8-0.7,1.4-1.5,1.4c-0.7,0-1.3-0.5-1.4-1.1c0,0,0,0,0,0
				C62,48.5,62.8,47.8,63.5,46.8z M44,29.2c1.2-1.4,2.6-2.6,4.3-3.5c0.6-0.3,1.4-0.6,2.1-0.4c0.6,0.1,1.3,0.6,1.9,0.5
				c0.4-0.1,1.1-0.5,1.7-0.4c0.8,0.2,1.5,0.6,2.3,1c1.6,1,3,2.3,4.1,3.8c2.1,2.7,3.7,6.6,2.4,9.9c-0.2-0.9-0.5-1.8-1.1-2.7
				c-0.7-1-1.7-1.6-2.7-2.3c-1.2-0.8-2.4-1.7-3.7-2.5c-0.6-0.4-1.2-0.7-1.8-1.1c-0.2-0.1-0.6-0.4-0.9-0.3c-0.9,0.2-1.8,1-2.6,1.5
				c-1.3,0.7-2.4,1.5-3.7,2.3c-2.4,1.5-3.9,3.4-4.1,6.1c-0.2-0.2-0.5-0.4-0.8-0.5c0.1-0.2,0.1-0.3,0-0.5
				C39.9,36.4,41.6,32.2,44,29.2z M43,41.4c0.2,0.2,0.4,0.3,0.7,0.5c-0.2,0-0.4,0-0.6-0.1c0,0,0,0-0.1,0C43,41.6,43,41.5,43,41.4z
				 M40.8,46.5c0.7,1,1.4,1.8,2.2,1.4c0,0,0,0,0,0c-0.1,0.6-0.7,1.1-1.4,1.1c-0.8,0-1.5-0.6-1.5-1.4C40,47.2,40.3,46.8,40.8,46.5z
				 M42.5,46.7c-0.2,0.1-0.4-0.1-0.6-0.4c0,0,0.1,0.1,0.1,0.1l0,0C42.2,46.5,42.4,46.6,42.5,46.7z M41.5,51c-1.3,0-2.3-1-2.3-2.3
				c0-0.5,0.2-1,0.5-1.4c0,0.1-0.1,0.3-0.1,0.5c0,1,0.8,1.8,1.9,1.8c0.7,0,1.4-0.4,1.7-1c0,0.1,0.1,0.1,0.1,0.2c0,0,0,0,0,0
				c0,0.1,0,0.2,0.1,0.2c0,0,0.1,0,0.1,0c0.1,0.2,0.2,0.3,0.3,0.5C43.3,50.4,42.5,51,41.5,51z M59.6,49c-0.1,0.1-0.1,0.2-0.2,0.3
				c0,0,0,0,0,0c-0.8,1.2-1.7,2.3-2.7,3.4c-1.2,1.1-2.8,2.4-4.6,2.5c-1.5,0.1-3-1-4.1-2c-0.2-0.1-0.3-0.2-0.4-0.4c0,0,0,0,0,0
				c-1.8-1.7-3-3.9-3.8-6.1c-0.1-0.3-0.5-0.5-0.8-0.4c-0.2-0.1-0.4-0.2-0.7-0.3l0,0c0,0,0,0-0.1,0c-0.1,0-0.2,0.1-0.2,0.2
				c0,0,0,0.1,0,0.1c-0.1-0.2-0.3-0.5-0.3-0.7c-0.3-0.6-0.7-1.2-1-1.8c-0.3-0.6-0.6-1.3-0.3-1.9c0.4-0.8,1.3,0.4,1.4,0.7
				c0.3,0.7,1.4,0.4,1.1-0.3c0,0,0,0,0-0.1c1,0.4,1.9-0.3,2.9-0.7c0,0.1-0.1,0.3-0.1,0.4c0,0.7,0.6,1.2,1.4,1.2
				c0.7,0,1.3-0.6,1.3-1.3c0,0,0-0.1,0-0.1c0.5,0.3,0.9,0.8,1.2,1.3c0.2,0.3,0.7,0,0.5-0.3c-0.4-0.8-1.2-1.5-2.1-1.8
				c-0.7-0.3-1.6-0.3-2.3,0c-0.3,0.1-0.7,0.4-1.1,0.6c-0.3-0.1-0.5-0.3-0.6-0.5c-0.1-0.1-0.3,0-0.2,0.1c0.1,0.2,0.3,0.4,0.6,0.5
				c-0.1,0-0.2,0.1-0.2,0.1c-0.4-0.2-0.8-0.4-1-0.7c0-0.3,0.1-0.6,0.2-0.9c0-0.1,0-0.1,0-0.2c0.2,0,0.4,0,0.5-0.2
				c0.9-1.3,2.1-1.6,3.5-1c0.9,0.4,1.8,1,2.7,1.5c0.6,0.3,1.1-0.5,0.5-0.8c-1.2-0.7-2.5-1.5-3.9-1.9c-0.9-0.2-1.7,0-2.3,0.4
				c0.1-0.1,0.1-0.1,0.1-0.1c0.8-0.9,1.8-1.5,2.8-2.2c1.8-1.2,3.7-2.3,5.6-3.4c0,0,0.1,0.1,0.2,0.1c0.5,0.3,1,0.6,1.4,0.8
				c1.2,0.7,2.2,1.5,3.4,2.2c1,0.7,2,1.2,2.8,2c1.1,1.1,1.5,2.6,1.5,4.1c0,0.3,0.3,0.4,0.5,0.4c0.1,0.1,0.3,0.1,0.5,0
				c0.1-0.1,0.2-0.1,0.3-0.1c0,0,0.1,0,0.1,0c0.3,0,0.5,0.3,0.5,0.6c0.1,0.6-0.3,1.1-0.6,1.6c-0.1,0.2-1,1.8-1.6,2.4
				c-0.1,0.1-0.3,0.1-0.4,0.2c-0.3-0.1-0.7,0-0.8,0.4C60.3,47.7,60,48.4,59.6,49z M47.4,41.7c0.1-0.1,0.3,0.1,0.5,0.3
				c0.1,0.2,0.1,0.5,0,0.6c-0.1,0.1-0.2-0.2-0.3-0.4C47.5,41.9,47.3,41.7,47.4,41.7z M62.8,51.2c-1,0-1.8-0.6-2.2-1.5
				c0.1-0.2,0.2-0.3,0.3-0.5c0,0,0.1,0,0.1,0c0.1,0,0.1-0.1,0.1-0.2c0,0,0,0,0,0c0-0.1,0.1-0.1,0.1-0.2c0.3,0.6,0.9,1,1.7,1
				c1,0,1.9-0.8,1.9-1.8c0-0.2,0-0.3-0.1-0.5c0.3,0.4,0.5,0.9,0.5,1.4C65.1,50.2,64,51.2,62.8,51.2z"/>
			<ellipse class="st1" cx="64.8" cy="49" rx="0.2" ry="0.2"/>
			<ellipse transform="matrix(0.222 -0.9751 0.9751 0.222 2.1466 101.4985)" class="st1" cx="64.7" cy="49.4" rx="0.2" ry="0.2"/>
			<ellipse transform="matrix(0.4284 -0.9036 0.9036 0.4284 -8.1485 86.6861)" class="st1" cx="64.4" cy="49.8" rx="0.2" ry="0.2"/>
			
				<ellipse transform="matrix(0.6164 -0.7874 0.7874 0.6164 -14.8532 69.7142)" class="st1" cx="64.1" cy="50.1" rx="0.2" ry="0.2"/>
			
				<ellipse transform="matrix(0.7765 -0.6301 0.6301 0.7765 -17.4746 51.4233)" class="st1" cx="63.7" cy="50.3" rx="0.2" ry="0.2"/>
			
				<ellipse transform="matrix(0.8954 -0.4452 0.4452 0.8954 -15.8593 33.4744)" class="st1" cx="63.3" cy="50.5" rx="0.2" ry="0.2"/>
			<ellipse transform="matrix(0.9731 -0.2305 0.2305 0.9731 -9.9603 15.8571)" class="st1" cx="62.9" cy="50.6" rx="0.2" ry="0.2"/>
			
				<ellipse transform="matrix(1 -8.621918e-03 8.621918e-03 1 -0.4332 0.5402)" class="st1" cx="62.4" cy="50.5" rx="0.2" ry="0.2"/>
			<ellipse transform="matrix(0.2178 -0.976 0.976 0.2178 -0.6612 99.9239)" class="st1" cx="62" cy="50.4" rx="0.2" ry="0.2"/>
			<ellipse transform="matrix(0.4169 -0.9089 0.9089 0.4169 -9.6499 85.2473)" class="st1" cx="61.6" cy="50.1" rx="0.2" ry="0.2"/>
			
				<ellipse transform="matrix(0.6197 -0.7848 0.7848 0.6197 -15.8042 67.0571)" class="st1" cx="61.3" cy="49.8" rx="0.2" ry="0.2"/>
			<ellipse transform="matrix(0.7776 -0.6288 0.6288 0.7776 -17.5254 49.3932)" class="st1" cx="61" cy="49.5" rx="0.2" ry="0.2"/>
			<path class="st1" d="M63.1,53.1c-0.3,1.2-1.1,2.3-2.2,2.9c-0.8,0.5-0.1,1.8,0.8,1.3c1.4-0.8,2.5-2.2,2.9-3.8
				C64.8,52.6,63.3,52.2,63.1,53.1z"/>
		</g>
	</g>
</g>
</svg>
